<svg viewBox="0 0 320 320" xmlns="http://www.w3.org/2000/svg">
  <line x1="20" y1="280" x2="300" y2="280" stroke="#232834" stroke-width="2"/>

  <path d="M160,280 L160,170" stroke="#97a1b3" stroke-width="10" stroke-linecap="round"/>
  <path d="M140,280 Q132,220 150,180" fill="none" stroke="#97a1b3" stroke-width="5" stroke-linecap="round"/>
  <path d="M180,280 Q190,220 172,180" fill="none" stroke="#97a1b3" stroke-width="5" stroke-linecap="round"/>
  <path d="M120,280 Q110,250 118,222" fill="none" stroke="#97a1b3" stroke-width="4" stroke-linecap="round"/>
  <path d="M200,280 Q212,250 204,222" fill="none" stroke="#97a1b3" stroke-width="4" stroke-linecap="round"/>

  <g fill="#5b8cff">
    <circle cx="160" cy="120" r="68" opacity="0.9"/>
    <circle cx="105" cy="150" r="46" opacity="0.8"/>
    <circle cx="215" cy="150" r="46" opacity="0.8"/>
    <circle cx="160" cy="70" r="42" opacity="0.95"/>
  </g>

  <g fill="#e0a458">
    <circle cx="0" cy="0" r="2" transform="translate(70,280)"/>
    <circle cx="0" cy="0" r="2" transform="translate(250,280)"/>
    <circle cx="0" cy="0" r="2" transform="translate(160,300)"/>
    <circle cx="0" cy="0" r="2" transform="translate(115,295)"/>
    <circle cx="0" cy="0" r="2" transform="translate(205,295)"/>
  </g>
</svg>
