<svg viewBox="0 0 300 180" xmlns="http://www.w3.org/2000/svg">
  <path d="M210,60 A40,40 0 0 1 290,60 Z" fill="#e0a458" opacity="0.85"/>

  <path d="M30,150 Q40,80 50,150" fill="none" stroke="#5b8cff" stroke-width="3"/>
  <path d="M50,150 Q42,100 30,90" fill="none" stroke="#5b8cff" stroke-width="2"/>
  <path d="M50,150 Q58,100 70,90" fill="none" stroke="#5b8cff" stroke-width="2"/>

  <line x1="0" y1="150" x2="300" y2="150" stroke="#232834" stroke-width="2"/>

  <g stroke="#5b8cff" stroke-width="2" stroke-linecap="round" opacity="0.9">
    <path d="M90,150 L94,118"/>
    <path d="M108,150 L112,114"/>
    <path d="M126,150 L130,120"/>
    <path d="M144,150 L148,112"/>
    <path d="M162,150 L166,118"/>
    <path d="M180,150 L184,114"/>
    <path d="M198,150 L202,120"/>
    <path d="M216,150 L220,112"/>
    <path d="M234,150 L238,118"/>
    <path d="M252,150 L256,114"/>
  </g>
  <g fill="#5b8cff" opacity="0.9">
    <ellipse cx="94" cy="116" rx="6" ry="3"/>
    <ellipse cx="112" cy="112" rx="6" ry="3"/>
    <ellipse cx="130" cy="118" rx="6" ry="3"/>
    <ellipse cx="148" cy="110" rx="6" ry="3"/>
    <ellipse cx="166" cy="116" rx="6" ry="3"/>
    <ellipse cx="184" cy="112" rx="6" ry="3"/>
    <ellipse cx="202" cy="118" rx="6" ry="3"/>
    <ellipse cx="220" cy="110" rx="6" ry="3"/>
    <ellipse cx="238" cy="116" rx="6" ry="3"/>
    <ellipse cx="256" cy="112" rx="6" ry="3"/>
  </g>
</svg>
