<svg viewBox="0 0 300 180" xmlns="http://www.w3.org/2000/svg">
  <polygon points="150,18 165,32 135,32" fill="#e0a458"/>
  <rect x="146" y="10" width="8" height="14" fill="#e0a458"/>

  <polygon points="110,55 190,55 175,32 125,32" fill="#5b8cff"/>
  <polygon points="95,80 205,80 190,57 110,57" fill="#5b8cff" opacity="0.85"/>
  <polygon points="78,108 222,108 205,82 95,82" fill="#5b8cff" opacity="0.7"/>

  <rect x="70" y="108" width="160" height="60" rx="3" fill="#161a23" stroke="#5b8cff" stroke-width="2"/>

  <path d="M100,168 L100,140 Q100,128 112,128 Q124,128 124,140 L124,168 Z" fill="none" stroke="#5b8cff" stroke-width="2"/>
  <path d="M138,168 L138,140 Q138,128 150,128 Q162,128 162,140 L162,168 Z" fill="none" stroke="#5b8cff" stroke-width="2"/>
  <path d="M176,168 L176,140 Q176,128 188,128 Q200,128 200,140 L200,168 Z" fill="none" stroke="#5b8cff" stroke-width="2"/>
</svg>
